<svg height="96" width="96" xmlns="http://www.w3.org/2000/svg" xmlns:xlink="http://www.w3.org/1999/xlink"><linearGradient id="a"><stop offset="0" stop-color="#fefefe"/><stop offset="1" stop-color="#fefefe" stop-opacity="0"/></linearGradient><linearGradient id="b" gradientUnits="userSpaceOnUse" x1="36.357143" x2="36.357143" xlink:href="#a" y1="6" y2="63.893143"/><radialGradient id="c" cx="48" cy="90.171875" gradientTransform="matrix(1.1573129 0 0 .99590774 -7.551021 .197132)" gradientUnits="userSpaceOnUse" r="42" xlink:href="#a"/><linearGradient id="d" gradientTransform="scale(1.0058652 .994169)" gradientUnits="userSpaceOnUse" x1="48" x2="48" y1="90" y2="5.987717"><stop offset="0" stop-color="#27221d"/><stop offset="1" stop-color="#505050" stop-opacity=".968627"/></linearGradient><linearGradient id="e" gradientTransform="matrix(1.0058652 0 0 .994169 100 0)" gradientUnits="userSpaceOnUse" x1="45.447727" x2="45.447727" y1="92.539597" y2="7.01654"><stop offset="0"/><stop offset="1" stop-opacity=".588235"/></linearGradient><linearGradient id="f" gradientTransform="matrix(1.0238095 0 0 1.0119048 -1.142857 -98.071429)" gradientUnits="userSpaceOnUse" x1="32.251034" x2="32.251034" xlink:href="#e" y1="6.131708" y2="90.238609"/><linearGradient id="g" gradientTransform="translate(0 -97)" gradientUnits="userSpaceOnUse" x1="32.251034" x2="32.251034" xlink:href="#e" y1="6.131708" y2="90.238609"/><g><g fill="url(#f)"><path d="m12-95.03125c-5.5110903 0-10.03125 4.52016-10.03125 10.03125v71c0 5.5110902 4.5201598 10.03125 10.03125 10.03125h72c5.51109 0 10.03125-4.5201597 10.03125-10.03125v-71c0-5.51109-4.52016-10.03125-10.03125-10.03125z" opacity=".08" transform="scale(1 -1)"/><path d="m12-94.03125c-4.971633 0-9.03125 4.059617-9.03125 9.03125v71c0 4.9716329 4.0596171 9.03125 9.03125 9.03125h72c4.971633 0 9.03125-4.059617 9.03125-9.03125v-71c0-4.971633-4.059617-9.03125-9.03125-9.03125z" opacity=".1" transform="scale(1 -1)"/><path d="m12-93c-4.4091333 0-8 3.590867-8 8v71c0 4.4091333 3.5908667 8 8 8h72c4.409133 0 8-3.5908667 8-8v-71c0-4.409133-3.590867-8-8-8z" opacity=".2" transform="scale(1 -1)"/><rect height="85" opacity=".3" rx="7" transform="scale(1 -1)" width="86" x="5" y="-92"/></g><rect fill="url(#g)" height="84" opacity=".45" rx="6" transform="scale(1 -1)" width="84" x="6" y="-91"/></g><rect fill="url(#d)" height="84" rx="6" width="84" x="6" y="6"/><path d="m12 6c-3.324 0-6 2.676-6 6v2 68 2c0 .334721.04135.6507.09375.96875.0487.295596.09704.596915.1875.875.00988.03038.020892.0636.03125.09375.098865.287771.2348802.547452.375.8125.1445918.273507.3156161.535615.5.78125s.3737765.473472.59375.6875c.439947.428056.94291.814526 1.5 1.09375.278545.139612.5734731.246947.875.34375-.2562018-.100222-.4867109-.236272-.71875-.375-.00741-.0044-.023866.0045-.03125 0-.031933-.0193-.062293-.04251-.09375-.0625-.120395-.0767-.2310226-.163513-.34375-.25-.1061728-.0808-.2132809-.161112-.3125-.25-.1779299-.161433-.3474596-.345388-.5-.53125-.1075789-.130255-.2183939-.265285-.3125-.40625-.025089-.03838-.038446-.08587-.0625-.125-.064763-.103032-.1302275-.204517-.1875-.3125-.1010083-.194706-.2056748-.415701-.28125-.625-.00796-.02181-.023589-.04055-.03125-.0625-.0318251-.09195-.0358045-.186831-.0625-.28125-.0303323-.106618-.0703894-.203031-.09375-.3125-.0728786-.341512-.125-.698205-.125-1.0625v-2-68-2c0-2.781848 2.2181517-5 5-5h2 68 2c2.781848 0 5 2.218152 5 5v2 68 2c0 .364295-.05212.720988-.125 1.0625-.04415.206893-.08838.397658-.15625.59375-.0077.02195-.0233.04069-.03125.0625-.06274.173739-.138383.367449-.21875.53125-.04158.0828-.07904.169954-.125.25-.0546.09721-.126774.18835-.1875.28125-.09411.140965-.204921.275995-.3125.40625-.143174.17445-.303141.346998-.46875.5-.01117.0102-.01998.02115-.03125.03125-.138386.125556-.285091.234436-.4375.34375-.102571.07315-.204318.153364-.3125.21875-.0074.0045-.02384-.0044-.03125 0-.232039.138728-.462548.274778-.71875.375.301527-.0968.596455-.204138.875-.34375.55709-.279224 1.060053-.665694 1.5-1.09375.219973-.214028.409366-.441865.59375-.6875s.355408-.507743.5-.78125c.14012-.265048.276135-.524729.375-.8125.01041-.03078.02133-.06274.03125-.09375.09046-.278085.1388-.579404.1875-.875.0524-.31805.09375-.634029.09375-.96875v-2-68-2c0-3.324-2.676-6-6-6z" fill="url(#b)" opacity=".2"/><path d="m12 90c-3.324 0-6-2.676-6-6v-2-68-2c0-.334721.04135-.6507.09375-.96875.0487-.295596.09704-.596915.1875-.875.00988-.03038.020892-.0636.03125-.09375.098865-.287771.2348802-.547452.375-.8125.1445918-.273507.3156161-.535615.5-.78125s.3737765-.473472.59375-.6875c.439947-.428056.94291-.814526 1.5-1.09375.278545-.139612.5734731-.246947.875-.34375-.2562018.100222-.4867109.236272-.71875.375-.00741.0044-.023866-.0045-.03125 0-.031933.0193-.062293.04251-.09375.0625-.120395.0767-.2310226.163513-.34375.25-.1061728.0808-.2132809.161112-.3125.25-.1779299.161433-.3474596.345388-.5.53125-.1075789.130255-.2183939.265285-.3125.40625-.025089.03838-.038446.08587-.0625.125-.064763.103032-.1302275.204517-.1875.3125-.1010083.194706-.2056748.415701-.28125.625-.00796.02181-.023589.04055-.03125.0625-.0318251.09195-.0358045.186831-.0625.28125-.0303323.106618-.0703894.203031-.09375.3125-.0728786.341512-.125.698205-.125 1.0625v2 68 2c0 2.781848 2.2181517 5 5 5h2 68 2c2.781848 0 5-2.218152 5-5v-2-68-2c0-.364295-.05212-.720988-.125-1.0625-.04415-.206893-.08838-.397658-.15625-.59375-.0077-.02195-.0233-.04069-.03125-.0625-.06274-.173739-.138383-.367449-.21875-.53125-.04158-.0828-.07904-.169954-.125-.25-.0546-.09721-.126774-.18835-.1875-.28125-.09411-.140965-.204921-.275995-.3125-.40625-.143174-.17445-.303141-.346998-.46875-.5-.01117-.0102-.01998-.02115-.03125-.03125-.138386-.125556-.285091-.234436-.4375-.34375-.102571-.07315-.204318-.153364-.3125-.21875-.0074-.0045-.02384.0044-.03125 0-.232039-.138728-.462548-.274778-.71875-.375.301527.0968.596455.204138.875.34375.55709.279224 1.060053.665694 1.5 1.09375.219973.214028.409366.441865.59375.6875s.355408.507743.5.78125c.14012.265048.276135.524729.375.8125.01041.03078.02133.06274.03125.09375.09046.278085.1388.579404.1875.875.0524.31805.09375.634029.09375.96875v2 68 2c0 3.324-2.676 6-6 6z" fill="url(#c)" opacity=".2"/><path d="m30.108704 53.815995c.584138.365016.960469.724763 1.525697 1.180294l4.577334 4.245234c.955209.909103 3.399899 3.37769 4.339761 4.471752.641204.746437.919538.826519 1.391475 1.562344-.17309.06431-2.311631.555496-3.555337.983296-2.589777.890906-4.948321 2.318325-7.203505 1.553784-.337275-.114421-1.8726-1.580718-2.576587-2.076646-.416559-.293494-.813234-.570394-1.292662-.905447-1.372481-.959128-1.765941-.298753.05738-4.546921.476756-1.110919.880472-2.111334 1.334306-3.200315.396403-.951197.942543-2.489015 1.402171-3.267375zm32.890186-25.647971c.941559.327385 3.22439 1.631813 3.783993 2.333578.471047.590634.334697.645038.160434 1.496081l-.928359 7.265127c-1.285884.04716-.914456-.106125-1.711631-.641025-1.337165-.897056-5.924315-4.285808-7.397211-5.473236l-2.832712-2.276494c.20895-.195309-.072-.093.399797-.216178l4.192977-.944587c2.184103-.547566 2.522625-.691238 4.332712-1.543266zm-37.591663 1.462556c.960647-.539278 1.472456-.129759 3.092943-1.303368.434306-.314541 1.433569-.2835 2.040169-.200213.628715.08634 2.076468 1.293469 2.740499 1.701197.383925.2358 2.111869 1.555387 2.393587 2.011725l.853369 1.377834c1.176009.05784.969384-.01041 2.453156 1.075237l14.200657 9.371567c3.0537 2.121947 6.616799 4.289728 9.687795 6.427996l8.752743 5.728921c-.252375.543282-.548185 2.417306-.71326 3.166425-.758296 3.441093-1.71163 4.898737-3.255337 8.207849-2.217815.08728-3.968324.0705-6.13558.03581-.701484-.01125-.52875.135909-.912393-.235884-1.268766-1.229616-3.576478-3.9282-4.859597-5.172618-.443137-.42975-.841949-.833203-1.280981-1.301044-3.547668-3.780243-1.868324-2.641415-2.562496-3.582534l-7.138583-6.747805c-1.638778-1.593637-3.115415-3.309459-4.80975-5.10448-.435018-.460875-.653503-.895716-1.107159-1.314328l-.125484-.113175c-.121191-.118697-.07481-.06966-.187453-.198956l-2.073787-2.357023c-.365288-.337903-.330413-.326578-.598313-.630684l-1.865109-1.923966c-.410137-.4302-.729844-.875484-1.120097-1.339481l-1.78244-1.890618c-.265312-.269409-.45749-.349941-.71879-.622116-.847482-.882524-1.560291-1.727502-2.416866-2.609137-.685528-.70559-2.354081-2.061843-2.551443-2.457084zm8.561099-10.543123-14.650723.301425c-.790116 2.916103-.0047 1.440084-.0028 4.484596l-.0028 5.512124c-.119625 1.592128-.53895 2.403216-.538144 4.532212.000263.716916-.158193 2.360681.186506 2.922065.610294.994003.595004 1.835859.851944 3.271837.228309 1.275806.477038 1.141678-.09826 2.103937l-.268181 2.437641 1.252012 1.224534.0094 2.140846c-.745275.683119.08869.196913-1.48725 1.33351l.140897 6.466789 1.551647 1.126613-.324441 5.512752c-1.636453 1.173159-1.284647 2.595759-1.23239 4.056702l.200062 5.497584-.359184 2.817374c3.667208.92266 2.863255.636563 7.054883.6363 3.704362-.000197 3.226181.03787 6.887455-.406931l.09454.624262c.56745-.03675 1.153453-.06778 1.712606-.122174 1.558331-.151519.935681-.331575 1.472184-.525985.387843-.140456 4.563074.828834 5.241374.975094.374287-.418969.183712-.249881.706125-.587606.282253.596521 1.490015 1.965168 1.981846 2.560443l1.512047-1.4193 2.64525 1.026638.774974-.651816c.302054.357347.486216.8061 1.025391.876731.785503.10291.913565-1.198134 2.646421-1.231125l10.04728-.335146c.128953-.124407.205641-.197972.343875-.333525l.513497-.417816c.660112.397922.941559.780506 1.846912.720487 2.77109-.183712 1.320937.670988 4.897321.478632.616406-.03319.463284-.184697 1.007016-.376257l1.160943-.17925c-.252112-.676518-.413793-.581268-.915693-1.08674l6.364592 1.287037c-.08531-7.491195-.06919-16.631782.02587-24.339165l-1.711003.1278c.06178-.500212.807703-.312131.866382-1.317993.07397-1.267866.06047-5.608171-.12405-6.535724-.09435-.474085-1.301578-1.856466-1.624228-2.286487.383831-1.043944.421997-.974653 1.133025-1.825519-.06-.560044-.191194-.709781-.431541-1.347412l1.865203-.611156c.02062-1.073006.141169-5.37764.07125-6.738346l-.755709-7.349493.577265-1.837378.02494-1.888387c-1.611122-.928893-1.400475-1.031446-2.519241-1.023421-1.003546.0075-2.356134-.04641-3.318562-.266654-1.235503-.283593-.903843-.484246-2.258221.906075l-.614625-1.337699c-1.933959-.143588-8.134996-.6858-9.61003-.6858-1.885349 0-1.61219.141796-2.249024 2.282381l-2.706169.278334-.359934-1.170394-2.452087-.02766.259959-.286275c.479344-.45749.311325-.272887.686419-1.078181l-9.861692.000891c-.32596.602859-.921853 1.06124-1.624416 1.294003-.98205.326399-.495928-.198872-1.116356.357609-.464447.416465-.544978.390609-1.277409.37545-.971887-.01959-1.96874-.05081-2.940178-.09094-.44804-.01875-.940846.02672-1.37159-.07491-.663497-.156956-.470419-.329072-.833297-.758025" fill="#d43b24" fill-rule="evenodd"/></svg>